# xmcd
#
# Track frame offsets: 
#        150
#        29846
#        56186
#        76518
#        99289
#        126783
#        158990
#        187984
#
# Disc length: 2822 seconds
#
# Revision: 0
# Processed by: cddbd v1.5.2PL0 Copyright (c) Steve Scherf et al.
# Submitted via: ExactAudioCopy v0.99pb5
#
DISCID=5f0b0408
DTITLE=Rick Fowler - Live from Athens GA
DYEAR=2012
DGENRE=Blues
TTITLE0=Preacher
TTITLE1=Skeletons in Your Closet
TTITLE2=This Life
TTITLE3=Road to Nowhere
TTITLE4=Walk Softly
TTITLE5=Prince of Fools
TTITLE6=Hellhound
TTITLE7=Guided Missile
EXTD=
EXTT0=
EXTT1=
EXTT2=
EXTT3=
EXTT4=
EXTT5=
EXTT6=
EXTT7=
PLAYORDER=
